Coordinates
version=1
nRows=34
nColumns=38
inDegrees=no

Units are S.I. units (second, meters, Newtons, ...)
If the header above contains a line with 'inDegrees', this indicates whether rotational values are in degrees (yes) or radians (no).

endheader
time	pelvis_tilt	pelvis_list	pelvis_rotation	pelvis_tx	pelvis_ty	pelvis_tz	hip_flexion_r	hip_adduction_r	hip_rotation_r	knee_angle_r	ankle_angle_r	subtalar_angle_r	mtp_angle_r	hip_flexion_l	hip_adduction_l	hip_rotation_l	knee_angle_l	ankle_angle_l	subtalar_angle_l	mtp_angle_l	lumbar_extension	lumbar_bending	lumbar_rotation	arm_flex_r	arm_add_r	arm_rot_r	elbow_flex_r	pro_sup_r	wrist_flex_r	wrist_dev_r	arm_flex_l	arm_add_l	arm_rot_l	elbow_flex_l	pro_sup_l	wrist_flex_l	wrist_dev_l
3.49	-1.65465	1.47896	0.508604	0.840203	0.262037	0.948311	0.218293	0.0760341	-0.232294	0.305805	0.0652627	0	0	0.383199	-0.11117	0.238199	1.41494	0.192951	0	0	0.0128625	0.169497	0.0695277	0.18978	-0.185875	-0.200549	1.13027	1.5708	0	0	-0.496038	-0.180156	0.273445	0.769384	0.21717	0	0
3.5	-1.65671	1.48124	0.497638	0.838269	0.25599	0.949544	0.203332	0.0819509	-0.222701	0.289594	0.0632991	0	0	0.405658	-0.0988304	0.237137	1.43264	0.200986	0	0	0.00759226	0.166713	0.0739643	0.186961	-0.182572	-0.202103	1.13269	1.5708	0	0	-0.494135	-0.177926	0.280919	0.772566	0.213567	0	0
3.51	-1.66214	1.48433	0.489615	0.837024	0.249992	0.950743	0.18875	0.0862245	-0.210531	0.274771	0.0609299	0	0	0.426876	-0.0860685	0.234415	1.44386	0.206369	0	0	0.00249965	0.163445	0.0799998	0.179901	-0.180317	-0.211878	1.15216	1.5708	0	0	-0.492336	-0.176022	0.287343	0.778062	0.210973	0	0
3.52	-1.66279	1.48705	0.477612	0.83521	0.244147	0.951849	0.17415	0.0903441	-0.201178	0.260451	0.0598399	0	0	0.447683	-0.0753587	0.230624	1.44952	0.212653	0	0	-0.00272062	0.160344	0.0851488	0.17966	-0.176785	-0.209523	1.13868	1.5708	0	0	-0.49059	-0.175288	0.293924	0.784726	0.208249	0	0
3.53	-1.70419	1.48723	0.51179	0.834943	0.239164	0.952597	0.166683	0.0972612	-0.187594	0.249486	0.0547456	0	0	0.482314	-0.0419222	0.226017	1.46949	0.187113	0	0	-0.00308015	0.159176	0.0850099	0.17651	-0.174814	-0.215022	1.13998	1.5708	0	0	-0.487605	-0.173425	0.296603	0.789118	0.206224	0	0
3.54	-1.66018	1.49252	0.449277	0.833347	0.232561	0.953833	0.145185	0.100844	-0.172272	0.233172	0.054338	0	0	0.479007	-0.0389963	0.214337	1.44383	0.20417	0	0	-0.0131026	0.15563	0.0964568	0.171208	-0.172018	-0.22029	1.14587	1.5708	0	0	-0.486949	-0.172612	0.300582	0.796899	0.203004	0	0
3.55	-1.71267	1.49624	0.490451	0.831837	0.227192	0.954603	0.135441	0.10023	-0.163419	0.221556	0.0543606	0	0	0.515603	-0.0263641	0.211699	1.45255	0.188858	0	0	-0.0153121	0.149046	0.100489	0.167625	-0.168167	-0.225214	1.14819	1.5708	0	0	-0.483599	-0.171869	0.302365	0.800755	0.20152	0	0
3.56	-1.74249	1.50054	0.50674	0.830413	0.221741	0.955235	0.123156	0.0998431	-0.152081	0.209528	0.0544235	0	0	0.54365	-0.0148161	0.218368	1.43941	0.165463	0	0	-0.0182519	0.141647	0.111838	0.159375	-0.16649	-0.235239	1.15398	1.5708	0	0	-0.467157	-0.189163	0.469255	0.802998	0.457449	0	0
3.57	-1.70303	1.50741	0.448678	0.828788	0.215222	0.956487	0.102448	0.100085	-0.136584	0.194751	0.0532836	0	0	0.541461	-0.0150626	0.192881	1.41492	0.187401	0	0	-0.0275664	0.135515	0.122488	0.154144	-0.164124	-0.238001	1.15903	1.5708	0	0	-0.465768	-0.18702	0.464443	0.804776	0.459889	0	0
3.58	-1.72645	1.513	0.455542	0.827398	0.209156	0.957414	0.0879926	0.0982929	-0.121958	0.182089	0.051698	0	0	0.552442	-0.0105453	0.181974	1.38863	0.186101	0	0	-0.0335394	0.130216	0.126274	0.151942	-0.161612	-0.235915	1.16415	1.5708	0	0	-0.478566	-0.170473	0.309505	0.819673	0.243038	0	0
3.59	-1.73945	1.51869	0.453606	0.826086	0.203225	0.958162	0.0741925	0.0958082	-0.111635	0.17182	0.0515552	0	0	0.56156	-0.00658407	0.171954	1.359	0.184952	0	0	-0.0383234	0.123355	0.132561	0.14676	-0.159967	-0.237911	1.16922	1.5708	0	0	-0.477433	-0.168355	0.303284	0.820998	0.235118	0	0
3.6	-1.75265	1.52446	0.451521	0.824829	0.19733	0.958871	0.0605408	0.0928813	-0.0999688	0.161746	0.0513994	0	0	0.568807	-0.00399121	0.160762	1.32515	0.184454	0	0	-0.0432278	0.116409	0.139265	0.140964	-0.158545	-0.240189	1.17552	1.5708	0	0	-0.476125	-0.166314	0.296263	0.823212	0.227836	0	0
3.61	-1.85046	1.52538	0.537044	0.82407	0.191996	0.958785	0.0550972	0.0915776	-0.0907886	0.155239	0.0526761	0	0	0.607767	0.000232419	0.162022	1.34638	0.0973759	0	0	-0.0418634	0.113378	0.142623	0.134566	-0.15886	-0.241397	1.18397	1.5708	0	0	-0.47383	-0.163656	0.293175	0.823817	0.221013	0	0
3.62	-1.81448	1.53457	0.481152	0.822328	0.185613	0.960022	0.0368782	0.086849	-0.0726008	0.145622	0.0518182	0	0	0.579016	-0.00402492	0.134718	1.24509	0.181602	0	0	-0.0509066	0.103625	0.153706	0.128826	-0.155942	-0.243913	1.18971	1.5708	0	0	-0.470372	-0.163666	0.289923	0.822974	0.2112	0	0
3.63	-1.82356	1.53911	0.475261	0.821161	0.179793	0.960342	0.0248554	0.0842049	-0.0594745	0.138739	0.0534939	0	0	0.581283	-0.00658567	0.120458	1.20129	0.181406	0	0	-0.0534174	0.096586	0.164115	0.119315	-0.155924	-0.249747	1.1974	1.5708	0	0	-0.453665	-0.177337	0.431072	0.815048	0.416186	0	0
3.64	-1.89555	1.54146	0.534982	0.820407	0.173842	0.9604	0.0161605	0.0819602	-0.051882	0.132926	0.0562317	0	0	0.585051	-0.00945513	0.108576	1.15659	0.181077	0	0	-0.053469	0.0924153	0.166267	0.112229	-0.155697	-0.249744	1.20443	1.5708	0	0	-0.453169	-0.17561	0.424632	0.816068	0.420545	0	0
3.65	-2.08225	1.54208	0.712569	0.819857	0.16848	0.960159	0.0126512	0.0786505	-0.046041	0.12931	0.0589347	0	0	0.601667	-0.00891705	0.108656	1.11516	0.163923	0	0	-0.0508941	0.0875308	0.165128	0.105675	-0.154795	-0.250481	1.21176	1.5708	0	0	-0.451249	-0.17427	0.418741	0.817083	0.423675	0	0
3.66	-2.1648	1.54305	0.78394	0.819242	0.162628	0.959978	0.00457075	0.0769016	-0.0383093	0.124522	0.0609267	0	0	0.602817	-0.0139712	0.0951046	1.06559	0.161451	0	0	-0.0510372	0.084129	0.165625	0.0984519	-0.153794	-0.251132	1.22067	1.5708	0	0	-0.450236	-0.173114	0.412705	0.818913	0.428264	0	0
3.67	-2.22397	1.54342	0.8331	0.818758	0.156818	0.959701	-0.00349349	0.075905	-0.0309432	0.12023	0.0632618	0	0	0.602738	-0.0198313	0.0816038	1.01472	0.157369	0	0	-0.051377	0.0817522	0.164829	0.0912369	-0.152405	-0.252196	1.23022	1.5708	0	0	-0.449187	-0.172396	0.407764	0.819331	0.427848	0	0
3.68	-2.28015	1.54335	0.879076	0.818362	0.150876	0.95933	-0.0109795	0.0750098	-0.0237552	0.116703	0.0666594	0	0	0.601549	-0.0267847	0.0663421	0.962541	0.152126	0	0	-0.0511579	0.079817	0.163882	0.0833344	-0.151207	-0.252802	1.24019	1.5708	0	0	-0.448312	-0.171938	0.404485	0.819625	0.427089	0	0
3.69	-2.34297	1.54374	0.930137	0.81791	0.144902	0.958928	-0.018416	0.0735061	-0.014533	0.113687	0.0703766	0	0	0.598184	-0.034731	0.0479481	0.907714	0.145354	0	0	-0.0515869	0.0772305	0.164752	0.0747783	-0.149875	-0.254024	1.25117	1.5708	0	0	-0.447134	-0.171826	0.40009	0.82215	0.43075	0	0
3.7	-2.43924	1.54231	1.01473	0.817655	0.138823	0.95846	-0.0234387	0.0719464	-0.005296	0.111404	0.073874	0	0	0.59512	-0.0425169	0.029489	0.85022	0.137332	0	0	-0.0510604	0.0767199	0.160763	0.0687501	-0.148008	-0.25069	1.26193	1.5708	0	0	-0.461144	-0.159357	0.260113	0.834609	0.18957	0	0
3.71	-2.39716	1.54436	0.957717	0.817368	0.132132	0.958002	-0.0356664	0.0715047	0.00642149	0.10729	0.0781398	0	0	0.576512	-0.0528296	-0.000271033	0.787962	0.140625	0	0	-0.0535648	0.0763523	0.164261	0.0585623	-0.147202	-0.251407	1.27501	1.5708	0	0	-0.460685	-0.158986	0.256763	0.835653	0.171409	0	0
3.72	-2.56885	1.54072	1.12232	0.817468	0.126668	0.957232	-0.035779	0.068472	0.010752	0.107614	0.0837407	0	0	0.58428	-0.0568012	-0.00574764	0.738896	0.118943	0	0	-0.0488725	0.0728615	0.159534	0.0504895	-0.14392	-0.252801	1.28424	1.5708	0	0	-0.45827	-0.159087	0.252332	0.834215	0.163879	0	0
3.73	-2.53943	1.54263	1.07887	0.817548	0.119721	0.956661	-0.0487113	0.067254	0.0218112	0.102329	0.0884813	0	0	0.563769	-0.0645896	-0.0320689	0.673634	0.117697	0	0	-0.0501881	0.0727859	0.160857	0.0392511	-0.143055	-0.252163	1.29805	1.5708	0	0	-0.459322	-0.1576	0.24726	0.833773	0.154031	0	0
3.74	-2.59132	1.54169	1.12226	0.817972	0.113309	0.955985	-0.0563706	0.0651303	0.0279817	0.098881	0.0932614	0	0	0.555509	-0.0683437	-0.0426	0.616545	0.10892	0	0	-0.0480246	0.0713952	0.156571	0.0286947	-0.140576	-0.251943	1.31019	1.5708	0	0	-0.458777	-0.156954	0.242725	0.832005	0.148678	0	0
3.75	-2.6114	1.5424	1.13476	0.818482	0.106863	0.955268	-0.0662312	0.0630314	0.0333923	0.095472	0.0984065	0	0	0.544799	-0.0710082	-0.0493211	0.560806	0.104614	0	0	-0.0461924	0.0682858	0.156195	0.0147497	-0.137868	-0.256687	1.323	1.5708	0	0	-0.443439	-0.170708	0.383454	0.822756	0.394279	0	0
3.76	-2.7533	1.53898	1.27116	0.819033	0.100912	0.954526	-0.0679209	0.0589288	0.036697	0.0957449	0.103632	0	0	0.545386	-0.0720356	-0.0437202	0.51229	0.0970282	0	0	-0.0412733	0.0639072	0.148547	0.0050351	-0.133344	-0.256397	1.33297	1.5708	0	0	-0.44248	-0.169891	0.373237	0.820533	0.405342	0	0
3.77	-2.811	1.53787	1.31836	0.8196	0.0942296	0.953731	-0.0742788	0.0555779	0.0443332	0.0948193	0.108874	0	0	0.533473	-0.074577	-0.0447902	0.455787	0.0962967	0	0	-0.0385684	0.0617001	0.145783	-0.00698935	-0.130972	-0.255183	1.34592	1.5708	0	0	-0.443135	-0.168923	0.365506	0.819895	0.412722	0	0
3.78	-2.87147	1.53687	1.36738	0.820229	0.0874855	0.95293	-0.0800219	0.0517326	0.0520271	0.0952966	0.11447	0	0	0.521017	-0.0771316	-0.0425051	0.401331	0.0944296	0	0	-0.0357085	0.0594328	0.143997	-0.0194324	-0.128861	-0.254031	1.35857	1.5708	0	0	-0.442673	-0.169291	0.363196	0.818363	0.415282	0	0
3.79	-2.93117	1.53645	1.41426	0.820824	0.0806857	0.952144	-0.086359	0.0474025	0.0604485	0.0959095	0.12005	0	0	0.507432	-0.0802275	-0.0387916	0.347964	0.0901405	0	0	-0.0333026	0.0570889	0.143158	-0.0317293	-0.127087	-0.252255	1.37052	1.5708	0	0	-0.442387	-0.169976	0.360966	0.817928	0.415502	0	0
3.8	-2.99868	1.53654	1.46796	0.821437	0.0738166	0.951383	-0.0930451	0.0424117	0.0699918	0.097012	0.125845	0	0	0.493202	-0.0836929	-0.032681	0.296957	0.0827595	0	0	-0.0314137	0.0543733	0.142521	-0.0438228	-0.125593	-0.249543	1.38196	1.5708	0	0	-0.443392	-0.16985	0.352725	0.819866	0.421748	0	0
3.81	-2.9944	1.53815	1.44667	0.822166	0.0663269	0.950394	-0.102885	0.0391373	0.0830806	0.0969332	0.131846	0	0	0.475548	-0.0902314	-0.0323046	0.253114	0.0815713	0	0	-0.0304863	0.0549945	0.144952	-0.0584704	-0.126522	-0.246116	1.39713	1.5708	0	0	-0.446501	-0.168187	0.344486	0.821397	0.428268	0	0
3.82	-3.07377	1.5378	1.51052	0.822886	0.0592884	0.949587	-0.108174	0.0330686	0.0929976	0.0997848	0.138584	0	0	0.462842	-0.0951749	-0.0177206	0.211258	0.0686211	0	0	-0.0282724	0.0520154	0.145774	-0.0719907	-0.125705	-0.242683	1.4098	1.5708	0	0	-0.447649	-0.167682	0.336586	0.820967	0.433411	0	0
